<svg xmlns="http://www.w3.org/2000/svg" viewBox="0 0 16 16"><defs><style>.cls-1{fill:#faaf40;}.cls-2{fill:#fff;}.cls-3{fill:none;stroke:#fff;stroke-linecap:round;stroke-miterlimit:10;stroke-width:0.5px;}</style></defs><title>Asset 2</title><g id="Layer_2" data-name="Layer 2"><g id="Layer_1-2" data-name="Layer 1"><circle class="cls-1" cx="8" cy="8" r="8"/><path class="cls-2" d="M8.78,9.87a.9.9,0,0,1-1.56,0L7,9.43,6.71,9a.9.9,0,0,1,.78-1.35h1A.9.9,0,0,1,9.29,9L9,9.43Z"/><path class="cls-3" d="M10.56,10.32a1.28,1.28,0,1,1-2.56,0"/><path class="cls-3" d="M8,10.32a1.28,1.28,0,0,1-2.56,0"/><line class="cls-3" x1="12.25" y1="7.46" x2="14.5" y2="6.58"/><line class="cls-3" x1="12.27" y1="9.66" x2="14.48" y2="10.62"/><line class="cls-3" x1="12.22" y1="8.56" x2="15.09" y2="8.56"/><line class="cls-3" x1="3.73" y1="7.42" x2="1.48" y2="6.53"/><line class="cls-3" x1="3.71" y1="9.62" x2="1.5" y2="10.58"/><line class="cls-3" x1="3.76" y1="8.51" x2="0.89" y2="8.51"/></g></g></svg>