<svg xmlns="http://www.w3.org/2000/svg" viewBox="0 0 50.37 64.59"><defs><style>.cls-1{fill:#f6921e;stroke:#f6921e;stroke-miterlimit:10;stroke-width:1.42px;}.cls-2{fill:#faaf40;}</style></defs><title>Asset 4</title><g id="Layer_2" data-name="Layer 2"><g id="Layer_1-2" data-name="Layer 1"><path class="cls-1" d="M25.36,63.88H39.78a5.79,5.79,0,0,0,5.79-6.06c-.38-7.94.61-21.34,1.75-25.5,1.66-6.05,6.39-16.7-5.44-20C42.11.95,32.65.71,32.65.71c-5.44,0-7.29,3.08-7.29,3.08A9.63,9.63,0,0,0,13.25,2.37c-1.66,1.18-5.44,5.2-4,9.23-7.57,2.13-8.52,7.1-8.52,9s2.6,9.23,2.6,15.61L4.73,58.08a5.79,5.79,0,0,0,5.79,5.79Z"/><ellipse class="cls-2" cx="10.29" cy="23.3" rx="4.85" ry="6.03" transform="translate(-3.83 2.1) rotate(-9.83)"/><ellipse class="cls-2" cx="19.28" cy="12.42" rx="4.85" ry="6.03" transform="translate(-1.84 3.47) rotate(-9.83)"/><ellipse class="cls-2" cx="40.1" cy="23.3" rx="6.03" ry="4.85" transform="translate(10.29 58.84) rotate(-80.17)"/><ellipse class="cls-2" cx="31.87" cy="12.42" rx="6.03" ry="4.85" transform="translate(14.19 41.7) rotate(-80.17)"/><circle class="cls-2" cx="25.36" cy="34.78" r="10.13"/><circle class="cls-2" cx="35.34" cy="38.33" r="4.76" transform="translate(-16.75 36.21) rotate(-45)"/><circle class="cls-2" cx="15.23" cy="38.33" r="4.76" transform="translate(-22.64 21.99) rotate(-45)"/></g></g></svg>